<?xml version="1.0" encoding="UTF-8"?>
<!DOCTYPE svg PUBLIC "-//W3C//DTD SVG 1.1//EN" "http://www.w3.org/Graphics/SVG/1.1/DTD/svg11.dtd">
<svg xmlns="http://www.w3.org/2000/svg" version="1.1" width="21px" height="20px" style="shape-rendering:geometricPrecision; text-rendering:geometricPrecision; image-rendering:optimizeQuality; fill-rule:evenodd; clip-rule:evenodd" xmlns:xlink="http://www.w3.org/1999/xlink">
<g><path style="opacity:0.553" fill="#fe5655" d="M 4.5,-0.5 C 8.5,-0.5 12.5,-0.5 16.5,-0.5C 17.4602,1.4607 18.7935,3.12736 20.5,4.5C 20.5,7.83333 20.5,11.1667 20.5,14.5C 18.8333,16.1667 17.1667,17.8333 15.5,19.5C 11.8333,19.5 8.16667,19.5 4.5,19.5C 2.83333,17.8333 1.16667,16.1667 -0.5,14.5C -0.5,11.1667 -0.5,7.83333 -0.5,4.5C 1.5,3.16667 3.16667,1.5 4.5,-0.5 Z M 7.5,1.5 C 10.2706,1.42074 12.9373,1.92074 15.5,3C 13.5421,5.74821 11.7088,8.58154 10,11.5C 8.7432,9.2542 6.90987,7.92087 4.5,7.5C 5.36176,10.8852 7.02842,13.8852 9.5,16.5C 12.9439,13.5424 15.4439,9.87572 17,5.5C 19.2933,10.7548 17.7933,14.5882 12.5,17C 3.77405,17.615 0.607387,13.7817 3,5.5C 4.39683,3.92975 5.89683,2.59641 7.5,1.5 Z"/></g>
</svg>
